{"title":"Grown Ups 2 2013 TS XviD Feel-Free","uid":8736697,"size":1085385589,"categoryP":"video","categoryS":"movies","magnet":"?xt=urn:btih:f5791e16a44c92a93cd83e1e42c848f4c6fe84ab&amp;dn=Grown+Ups+2+2013+TS+XviD+Feel-Free&amp;tr=udp%3A%2F%2Ftracker.openbittorrent.com%3A80&amp;tr=udp%3A%2F%2Fopen.demonii.com%3A1337&amp;tr=udp%3A%2F%2Ftracker.coppersurfer.tk%3A6969&amp;tr=udp%3A%2F%2Fexodus.desync.com%3A6969","seeders":7,"leechers":0,"uploader":"SaM","files":9,"time":1374694801,"description":"Genre:Comedy\nLanguage:English\nIMDb:http://www.imdb.com/title/tt2191701/\nSource:Grown Ups 2 TS - VOB Thanks\nSample:Never\nEncoder:Tony\n\nFormat : AVI\nFormat/Info : Audio Video Interleave\nFile size : 1.01 GiB\nDuration : 1h 34mn\nOverall bit rate : 1 532 Kbps\n\nVideo\nID : 0\nFormat : MPEG-4 Visual\nFormat profile : Simple@L5\nFormat settings, BVOP : No\nFormat settings, QPel : No\nFormat settings, GMC : No warppoints\nFormat settings, Matrix : Default (H.263)\nCodec ID : XVID\nCodec ID/Hint : XviD\nDuration : 1h 34mn\nBit rate : 1 331 Kbps\nWidth : 640 pixels\nHeight : 352 pixels\nDisplay aspect ratio : 16:9\nFrame rate : 25.000 fps\nColor space : YUV\nChroma subsampling : 4:2:0\nBit depth : 8 bits\nScan type : Progressive\nCompression mode : Lossy\nBits/(Pixel*Frame) : 0.236\nStream size : 897 MiB (87%)\nWriting library : XviD 64\n\nAudio\nID : 1\nFormat : AC-3\nFormat/Info : Audio Coding 3\nMode extension : CM (complete main)\nCodec ID : 2000\nDuration : 1h 34mn\nBit rate mode : Constant\nBit rate : 192 Kbps\nChannel(s) : 2 channels\nChannel positions : Front: L R\nSampling rate : 48.0 KHz\nBit depth : 16 bits\nCompression mode : Lossy\nDelay relative to video : 1s 400ms\nStream size : 129 MiB (13%)\nAlignment : Split accross interleaves\nInterleave, duration : 40 ms (1.00 video frame)\nInterleave, preload duration : 500 ms\n &lt;a href=&quot;\nhttp://img196.imageshack.us/img196/6383/8ccs.png&quot; rel=&quot;nofollow&quot; target=&quot;_NEW&quot;&gt;\nhttp://img196.imageshack.us/img196/6383/8ccs.png&lt;/a&gt;\n &lt;a href=&quot;\nhttp://img17.imageshack.us/img17/2294/7are.png&quot; rel=&quot;nofollow&quot; target=&quot;_NEW&quot;&gt;\nhttp://img17.imageshack.us/img17/2294/7are.png&lt;/a&gt;\n &lt;a href=&quot;\nhttp://img547.imageshack.us/img547/3903/2agi.png&quot; rel=&quot;nofollow&quot; target=&quot;_NEW&quot;&gt;\nhttp://img547.imageshack.us/img547/3903/2agi.png&lt;/a&gt;\n\nGreets:\nCRYS,INSPiRAL,IMAGINE,LKRG,ADTRG,FXG,3Li,FLAWL3SS,CrEwSaDe,TA,iLLUSiON,EMBER,HOPE,GooN,BBnRG,NOGRP,ETRG,BHRG,iLLUMiNATi,MiSTERE.ViSiON,DTRG SAFCuk009,LU,TheFalcon007,MYSTiC,PrisM,Noir,WBZ,LAP,Rx,Kingdom,SAFCuk009+Fabreezy,HDLiTE,TWiZTED,ETRG.ELEKTRI4KA,MAGNAT,CM8\nAnd to all the other p2p grps past and present\n\n\nMake sure its a real Feel-Free release @ http://extratorrent.com\nThanks to all who promotes release Feel-Free !!!","torrent":{"xt":"urn:btih:f5791e16a44c92a93cd83e1e42c848f4c6fe84ab","amp;dn":"Grown+Ups+2+2013+TS+XviD+Feel-Free","amp;tr":["udp%3A%2F%2Ftracker.openbittorrent.com%3A80","udp%3A%2F%2Fopen.demonii.com%3A1337","udp%3A%2F%2Ftracker.coppersurfer.tk%3A6969","udp%3A%2F%2Fexodus.desync.com%3A6969"],"infoHash":"f5791e16a44c92a93cd83e1e42c848f4c6fe84ab","infoHashBuffer":{"type":"Buffer","data":[245,121,30,22,164,76,146,169,60,216,62,30,66,200,72,244,198,254,132,171]},"announce":[],"urlList":[]}}